<svg width="1280" height="420" viewBox="0 0 1280 420" fill="none" xmlns="http://www.w3.org/2000/svg" role="img" aria-label="Moderation Map Lint cover">

  <defs>
    <linearGradient id="g" x1="0" x2="1" y1="0" y2="1">
      <stop offset="0" stop-color="#a3e635" stop-opacity=".34"/>
      <stop offset=".54" stop-color="#161616" stop-opacity="0"/>
      <stop offset="1" stop-color="#38bdf8" stop-opacity=".30"/>
    </linearGradient>
    <filter id="grain" x="-20%" y="-20%" width="140%" height="140%">
      <feTurbulence type="fractalNoise" baseFrequency=".85" numOctaves="2" seed="56" result="noise"/>
      <feColorMatrix type="saturate" values="0"/>
      <feComponentTransfer><feFuncA type="table" tableValues="0 .10"/></feComponentTransfer>
      <feBlend mode="soft-light" in2="SourceGraphic"/>
    </filter>
  </defs>
  <rect width="1280" height="420" rx="30" fill="#161616"/>
  <rect width="1280" height="420" rx="30" fill="url(#g)" filter="url(#grain)"/>

  <rect x="0" y="0" width="426" height="420" fill="#a3e635" opacity=".18"/>
  <path d="M102 304c116-58 246-64 360-4 114 60 246 72 410-10 152-76 260-66 328-30" stroke="#38bdf8" stroke-width="14" stroke-linecap="round" opacity=".64"/>
  <text x="92" y="166" fill="#fafafa" font-family="Aptos, Segoe UI, ui-sans-serif, system-ui" font-size="60" font-weight="850">Moderation Map Lint</text>
  <text x="96" y="226" fill="#d4d4d4" font-family="Aptos, Segoe UI, ui-sans-serif, system-ui" font-size="23">Check moderation policy maps for missing categories...</text>
  <text x="96" y="286" fill="#38bdf8" font-family="ui-monospace, SFMono-Regular, Menlo, monospace" font-size="18" font-weight="800">OPERATIONS</text>
  <rect x="846" y="122" width="152" height="28" rx="8" fill="#a3e635" opacity=".85"/>
  <text x="862" y="141" fill="#fafafa" font-family="ui-monospace, SFMono-Regular, Menlo, monospace" font-size="13">missing-action</text>
  <rect x="846" y="176" width="240" height="28" rx="8" fill="#38bdf8" opacity=".85"/>
  <text x="862" y="195" fill="#fafafa" font-family="ui-monospace, SFMono-Regular, Menlo, monospace" font-size="13">missing-human-review</text>
  <rect x="846" y="230" width="270" height="28" rx="8" fill="#a3e635" opacity=".85"/>
  <text x="862" y="249" fill="#fafafa" font-family="ui-monospace, SFMono-Regular, Menlo, monospace" font-size="13">unknown-appeal</text>
</svg>
